<svg id="Layer_1" data-name="Layer 1" xmlns="http://www.w3.org/2000/svg" viewBox="0 0 380.50036 380.23764">
  <title>developementicon</title>
  <g>
    <path d="M197.72049,13.64294q73.876-.0006,147.752.01568c24.89092.02754,42.49459,18.28141,42.50632,44.04764q.05016,110.01672.00317,220.03349c-.00627,24.75506-17.74966,43.27151-41.59783,43.3096q-57.39571.09168-114.79167.01386c-6.28948.00024-6.85575.60127-6.865,7.24156-.0071,5.10791.066,10.217-.022,15.32327-.05889,3.41439,1.155,4.91483,4.64284,5.73655,9.30532,2.19227,18.56317,4.74164,27.6276,7.82133,3.44428,1.17021,6.65185,3.79793,9.35815,6.434,4.28469,4.17342,4.31762,9.42-.14544,13.35332a46.86512,46.86512,0,0,1-11.82605,7.51347c-11.47359,5.09863-23.716,7.09468-36.05786,8.27636-23.17382,2.21873-46.20034,1.37134-68.702-5.26729a66.78812,66.78812,0,0,1-17.51131-8.06346c-8.25455-5.41114-8.03934-12.67471.01837-18.42,9.04973-6.4527,19.56613-8.8724,30.11286-10.98289,8.51245-1.70343,8.53732-1.56953,8.53654-10.66065-.00035-4.06011.01909-8.12036-.00573-12.18032-.03193-5.22519-.85339-6.09565-6.02772-6.10277q-28.60314-.03948-57.20638-.01622c-19.32136-.00292-38.64293.04894-57.964-.02492-24.45538-.0935-42.02613-18.32366-42.035-43.62038Q7.48157,167.60355,7.52157,57.783C7.53244,32.04,25.11814,13.7066,49.96789,13.66671Q123.844,13.54812,197.72049,13.64294Zm.0108,27.44176v-.01331q-73.49688,0-146.99376.00221Q33.96906,41.07536,33.965,58.40209q-.01173,51.66821-.0017,103.3364.0002,57.9549.01012,115.90977c.00656,9.88618,5.73016,15.843,15.28045,16.064,1.51467.035,3.03072.00633,4.54613.00635q78.61173.00065,157.22346.00048,67.24623-.00317,134.49246-.02662c10.32443-.00732,15.99769-5.89358,15.99889-16.47811q.01245-109.625-.0031-219.24989C361.509,46.877,355.83,41.08776,345.104,41.08675Q271.41765,41.07976,197.73129,41.0847Z" transform="translate(-7.49964 -13.62426)"/>
    <path d="M169.96127,265.16509c-9.47241.02267-15.09433-8.84188-11.69821-18.81008,7.7637-22.78786,15.66039-45.527,23.51386-68.282q15.47357-44.83368,30.97293-89.65776c2.36041-6.81825,7.95346-10.38947,14.36368-9.32539,8.83165,1.466,13.28181,9.6106,10.09665,18.95151-7.76986,22.78592-15.67062,45.52382-23.51618,68.282q-15.20337,44.10174-30.40442,88.20434C180.815,261.70414,176.48464,265.14948,169.96127,265.16509Z" transform="translate(-7.49964 -13.62426)"/>
    <path d="M122.54493,110.8587c7.28983.27165,10.9548,3.02333,12.98961,7.80575,2.352,5.5279,1.60256,10.83856-2.52878,15.23-7.1373,7.58664-14.42539,15.02068-21.65038,22.51859-2.76512,2.86956-5.544,5.725-8.293,8.61105-4.45149,4.67334-4.42167,7.9913.12973,12.7215,9.62614,10.00428,19.30906,19.95024,28.88482,30.00605,5.85692,6.15055,6.20208,13.811,1.1147,20.0723-5.23553,6.44361-12.87816,6.77615-18.84126.63954q-18.272-18.8037-36.41792-37.73919c-2.94434-3.0537-5.93908-6.05747-8.81793-9.17623-5.32451-5.76824-5.42072-13.608.03407-19.32014,15.006-15.714,30.03-31.41349,45.31666-46.83092C116.98658,112.85406,120.87083,111.76466,122.54493,110.8587Z" transform="translate(-7.49964 -13.62426)"/>
    <path d="M259.03192,219.70976c-.14346-4.4879,1.6538-8.05627,4.67173-11.16378q14.25027-14.67316,28.40449-29.44665c4.89788-5.0912,4.89293-8.19591-.01677-13.2973q-14.18595-14.73982-28.40351-29.44688c-3.39231-3.49952-5.51411-7.54515-4.95236-12.60981a12.89415,12.89415,0,0,1,21.94829-7.78069c4.72525,4.72858,9.31422,9.6037,13.9585,14.41925q15.40659,15.97465,30.80351,31.95933c6.61028,6.88584,6.60931,14.41335-.03092,21.32239q-21.66573,22.54272-43.41975,44.99378c-4.37887,4.49884-9.79144,5.19268-15.445,3.11555C261.84568,230.04657,259.07737,225.32645,259.03192,219.70976Z" transform="translate(-7.49964 -13.62426)"/>
  </g>
</svg>
