<?xml version="1.0" encoding="utf-8"?>
<!-- Generator: Adobe Illustrator 22.1.0, SVG Export Plug-In . SVG Version: 6.00 Build 0)  -->
<svg version="1.1" xmlns="http://www.w3.org/2000/svg" xmlns:xlink="http://www.w3.org/1999/xlink" x="0px" y="0px"
	 viewBox="0 0 2535 1625" style="enable-background:new 0 0 2535 1625;" xml:space="preserve">
<style type="text/css">
	.st0{fill:none;stroke:#231F20;stroke-width:24;stroke-miterlimit:10;}
	.st1{fill:none;stroke:#231F20;stroke-width:23.8874;stroke-miterlimit:10;}
	.st2{fill:none;stroke:#231F20;stroke-width:18.4287;stroke-miterlimit:10;}
	.st3{fill:none;stroke:#231F20;stroke-width:18.3422;stroke-miterlimit:10;}
	.st4{fill:#333333;}
	.st5{stroke:#000000;stroke-width:7;stroke-miterlimit:10;}
	.st6{opacity:0.3;fill:none;stroke:#000000;stroke-width:8;stroke-miterlimit:10;}
	.st7{stroke:#000000;stroke-width:8.7678;stroke-miterlimit:10;}
	.st8{stroke:#000000;stroke-width:5.7239;stroke-miterlimit:10;}
	.st9{stroke:#000000;stroke-width:6.5169;stroke-miterlimit:10;}
	.st10{opacity:0.3;fill:none;stroke:#000000;stroke-width:10.4174;stroke-miterlimit:10;}
</style>
<g id="Layer_1">
	<g id="Layer_1_1_">
	</g>
	<g id="Layer_3">
	</g>
	<line class="st0" x1="-2374.9" y1="16.1" x2="-2380.2" y2="778.1"/>
	<line class="st0" x1="-2506.9" y1="676.2" x2="-1894.8" y2="679.2"/>
	<path class="st1" d="M-2256.6,868.9c6.6-72.6,46-487.6,114-489.4c68.1-1.8,129.6,411.5,140,483.4"/>
	<line class="st0" x1="-1214.1" y1="262.3" x2="-1219.5" y2="1024.3"/>
	<line class="st0" x1="-1346.2" y1="922.4" x2="-734.1" y2="925.4"/>
	<path class="st1" d="M-1095.9,1115.1c6.6-72.6,97-534.5,114-489.4c16.6,44,129.6,411.5,140,483.4"/>
	<line class="st2" x1="-2390.2" y1="849.6" x2="-2394.3" y2="1434.7"/>
	<line class="st2" x1="-2491.6" y1="1356.4" x2="-2021.6" y2="1358.8"/>
	<path class="st3" d="M-2299.4,1504.4c5.1-55.8,35.3-374.4,87.5-375.8c52.3-1.4,99.5,316,107.5,371.2"/>
	<g>
		<path d="M57.6,343.2c1.4,0,2.8-0.1,4.3-0.1c53.1,0.1,106.2,0.2,159.3,0.2c4.1,0,4.1,0,4.1-4c0.1-105.8,0.1-211.6,0.2-317.4
			c0-1-0.1-2.1-0.2-3.1c2.7,0,5.3,0,8,0c-0.1,6.9-0.2,13.9-0.2,20.8c-0.2,99.8-0.3,199.5-0.5,299.3c0,4.5,0,4.5,4.4,4.5
			c51.9,0,103.7,0.1,155.6,0.1c125.9,0.2,251.8,0.4,377.7,0.6c71.3,0.1,142.7,0.3,214,0.4c1,0,2.1,0,3.7,0c0,2.1,0.1,4-0.1,6
			c0,0.5-0.9,1.2-1.4,1.3c-0.8,0.2-1.7,0.1-2.5,0.1c-113.6-0.1-227.3-0.2-340.9-0.4c-126.1-0.2-252.1-0.4-378.2-0.6
			c-9.5,0-19-0.1-28.5-0.2c-3.8,0-3.8,0-3.8,3.7c0,49.2,0,98.4-0.1,147.6c0,1.2,0,2.4,0,3.8c-2.6,0-4.9,0-7.6,0c0-1.3,0-2.5,0-3.7
			c0.1-49,0.2-98,0.3-147.1c0-4.5,0-4.5-4.5-4.5c-53.4-0.1-106.8-0.1-160.2-0.2c-0.9,0-1.9,0.1-2.8,0.1
			C57.6,348.2,57.6,345.7,57.6,343.2z"/>
	</g>
	<g id="cross_for_projects">
		<g>
			<path class="st4" d="M176.8,910.7c27.4,0.4,54.7,0.7,82.1,1.2c3.9,0.1,4.2-2,4.2-5c-0.1-14.1,0-28.3,0-42.4
				c0.2-70.8,0.5-141.7,0.7-212.5c2.5,0,5,0,7.5,0c-0.1,20.8-0.3,41.5-0.3,62.3c-0.1,63.5,0,127.1-0.1,190.6c0,7.1,0,7.1,7.4,7.2
				c104.1,0.5,208.3,0.9,312.4,1.4c26.7,0.1,53.3,0.4,80,0.6c0,2.5,0,5,0,7.5c-1.8,0-3.6-0.1-5.4-0.1
				c-106.8-0.5-213.6-0.9-320.5-1.4c-22.2-0.1-44.4-0.5-66.6-0.7c-7.4-0.1-7.5,0-7.5,7.6c0,25.1,0,50.1-0.2,75.2
				c0,1.8-1.3,4.8-2.6,5.2c-3.7,1.2-5.2-0.6-5.2-4.7c0.2-25.6,0-51.2,0.2-76.8c0-5-1-6.8-6.4-6.8c-25.2,0.2-50.5,0-75.7,0
				c-1.4,0-2.8,0.2-4.3,0.3C176.8,916.4,176.8,913.6,176.8,910.7z"/>
		</g>
	</g>
	<g id="about_page">
		<path d="M1646.2,553.2c1.1,0.1,2.1,0.2,3.2,0.2c93.6,0,187.2,0,280.8,0c3.7,0,3.7,0,3.7-3.8c0.2-47.1,0.4-94.2,0.6-141.3
			c0.2-32.4,0.4-64.8,0.5-97.2c0.4-65,0.7-130.1,1.1-195.1c0.1-26.9,0.3-53.7,0.5-80.6c0-1.1-0.1-2.1-0.2-3.2c2.5,0,5,0,7.5,0
			c-0.2,11.7-0.5,23.4-0.5,35.1c-0.3,57.7-0.5,115.3-0.8,173c-0.2,32.5-0.4,65-0.5,97.5c-0.2,32.5-0.4,65-0.5,97.5
			c-0.2,32.5-0.3,65-0.5,97.5c0,5.8-0.2,11.6-0.2,17.4c0,1,0.1,2.1,0.2,3.4c170.9,0,341.6,0,512.5,0c0,2.5,0,4.7,0,7.3
			c-1.4,0-2.6,0-3.8,0c-168,0-335.9,0-503.9,0c-0.8,0-1.6,0.1-2.4,0c-2.2-0.3-2.7,0.7-2.7,2.7c0,16.3-0.1,32.7-0.1,49
			c0,1,0,2.1,0,3.3c-2.5,0-4.6,0-7.1,0c0-4.8,0-9.5,0-14.2c0.1-12.8,0.2-25.5,0.4-38.3c0-2.3-0.9-2.6-2.9-2.6c-21,0.1-41.9,0-62.9,0
			c-72.7,0-145.5,0-218.2,0c-1.2,0-2.5,0.1-3.7,0.2C1646.2,558.2,1646.2,555.7,1646.2,553.2z"/>
	</g>
	<line class="st5" x1="2836" y1="76.3" x2="2836" y2="572.3"/>
	<path class="st5" d="M2647.3,411c317.3,0.2,634.7,0.4,952,0.7"/>
</g>
<g id="Layer_2">
	<polyline class="st6" points="3142.8,583.2 3037.1,298.1 2946.4,583.2 	"/>
</g>
<g id="Layer_3_1_">
	<line class="st7" x1="4068.1" y1="204" x2="4068.1" y2="982.1"/>
	<path class="st8" d="M3899.5,866.8c212.2,0.2,424.4,0.4,636.5,0.7"/>
</g>
<g id="Layer_5">
	<line class="st9" x1="1016" y1="597.9" x2="1016" y2="1027.8"/>
	<path class="st8" d="M880.3,915.6c212.2,0.2,424.4,0.4,636.5,0.7"/>
</g>
<g id="Layer_4">
	<polyline class="st10" points="4420.9,991.9 4292.7,593 4182.9,991.9 	"/>
</g>
</svg>
