<svg xmlns="http://www.w3.org/2000/svg" viewBox="0 0 645 39">
  <defs>
    <style>
      .cls-1 {
        fill: rgba(195,160,128,0.4);
      }

      .cls-2, .cls-3 {
        stroke: none;
      }

      .cls-3 {
        fill: #707070;
      }
    </style>
  </defs>
  <g id="Path_92" data-name="Path 92" class="cls-1">
    <path class="cls-2" d="M 634.8642578125 38.5 L 10.13574981689453 38.5 C 4.822583198547363 38.5 0.5 33.78974914550781 0.5 28 L 0.5 11 C 0.5 5.210249900817871 4.822583198547363 0.5 10.13574981689453 0.5 L 634.8642578125 0.5 C 640.1774291992188 0.5 644.5 5.210249900817871 644.5 11 L 644.5 28 C 644.5 33.78974914550781 640.1774291992188 38.5 634.8642578125 38.5 Z"/>
    <path class="cls-3" d="M 634.8642578125 38 C 639.9017333984375 38 644 33.51399993896484 644 28 L 644 11 C 644 5.486000061035156 639.9017333984375 1 634.8642578125 1 L 10.13574981689453 1 C 5.098249912261963 1 1 5.486000061035156 1 11 L 1 28 C 1 33.51399993896484 5.098249912261963 38 10.13574981689453 38 L 634.8642578125 38 M 634.8642578125 39 L 10.13574981689453 39 C 4.537916660308838 39 5.684341886080801e-14 34.07516479492188 5.684341886080801e-14 28 L 5.684341886080801e-14 11 C 5.684341886080801e-14 4.924833297729492 4.537916660308838 3.552713678800501e-15 10.13574981689453 3.552713678800501e-15 L 634.8642578125 3.552713678800501e-15 C 640.4620971679688 3.552713678800501e-15 645 4.924833297729492 645 11 L 645 28 C 645 34.07516479492188 640.4620971679688 39 634.8642578125 39 Z"/>
  </g>
</svg>
