<svg xmlns="http://www.w3.org/2000/svg" viewBox="0 0 176.87721 176.80544">
  <title>2logo</title>
  <g id="Layer_2" data-name="Layer 2">
    <g id="Layer_1-2" data-name="Layer 1">
      <path d="M64.35594,138.13958c4.54222-12.36567,8.74057-23.78658,12.933-35.21088,5.5303-15.07,11.53675-30.17642,16.98628-45.29207.869-2.41052,3.03567-3.17513,5.10417-3.54579,5.875.4,7.39737,1.98846,9.835,9.07756,8.17057,23.76163,17.09375,47.11721,25.72259,70.63183.45777,1.24757.85848,2.52793,1.47151,4.343-4.381,0-8.36143.20338-12.31074-.14519-.96917-.08558-2.20692-1.75759-2.69527-3.0666-6.42733-17.22852-12.74029-34.524-19.0899-51.798-.51022-1.388-1.07964-2.7418-1.87009-4.73978-1.23867,3.26321-2.26494,5.8983-3.245,8.56006-5.8807,15.97091-11.80015,31.92007-17.57263,47.95219-.89276,2.47949-1.93407,3.43316-4.09347,3.29417C72.03737,137.97529,68.52746,138.13958,64.35594,138.13958Z"/>
      <rect x="49.74181" y="99.59084" width="93.83333" height="13.14637"/>
      <rect x="14.82514" y="64.67417" width="82.9797" height="13.14637" transform="translate(-14.93236 127.56234) rotate(-90)"/>
      <g>
        <path d="M.05642,176.58341c0-1.19062,0-2.29385,0-3.39711Q.0554,120.96565,0,68.74514A6.76823,6.76823,0,0,1,2.3025,63.39453c2.71022-2.63039,5.17688-5.51174,7.74584-8.28767l.93207.59v110.095H121.37609l.54377.8992c-3.31545,3.166-6.59858,6.36728-9.98049,9.4606a3.60088,3.60088,0,0,1-2.25877.63573q-54.0745.03938-108.14906.008A12.34429,12.34429,0,0,1,.05642,176.58341Z"/>
        <path d="M165.87349,10.94381H56.78329C60.12508,7.36789,63.29192,3.901,66.578.55108A3.54513,3.54513,0,0,1,68.872.0125q53.29344-.03012,106.587-.0023c.30387.0001.60774.07291,1.41528.17617V3.375q.00028,52.21227-.08536,104.42427a7.96048,7.96048,0,0,1-2.00861,4.75842c-2.61545,2.95489-5.59267,5.58965-8.90676,8.82521Z"/>
        <path d="M.16664,49.37816V.20751H50.83156c-3.558,3.55507-6.785,6.9212-10.20558,10.07749-.6834.6306-2.10478.62717-3.18746.63309-8.63282.0473-17.266.02638-26.38556.02638,0,1.28155.00008,2.36665,0,3.45177-.00037,7.50964.09289,15.02151-.08349,22.527a7.50245,7.50245,0,0,1-1.79386,4.21025C6.62171,44.21,3.804,47.06745,1.09083,50.01177Z"/>
        <path d="M176.74363,126.6761v49.928H127.13257c3.61438-3.64471,6.83388-7.01078,10.2219-10.19772.61079-.57451,1.91382-.56051,2.89876-.56625,7.4051-.04326,14.81061-.02327,22.216-.02308,1.00809,0,2.01619,0,3.42272,0V149.91288C165.89193,136.16163,165.89193,136.16163,176.74363,126.6761Z"/>
      </g>
    </g>
  </g>
</svg>
