<svg id="Layer_1" data-name="Layer 1" xmlns="http://www.w3.org/2000/svg" viewBox="0 0 375.51109 379.78779">
  <title>design</title>
  <g>
    <path d="M302.5,124.5c72.942,18.51322,94.6778,83.95181,80.82526,136.0005-36.355,136.59859-210.76418,174.98014-309.04662,82.65881C16.90759,289.268-1.87559,221.84816,21.62922,147.352,45.68651,71.10483,101.23144,27.38694,180.77754,15.379c5.33421-.80522,10.72246-2.629,16.24839-.73068,18.71567,6.4295,39.30731,21.80866,25.18059,45.62424-10.666,17.98122-11.36416,21.45809-7.30467,34.75794,34.94967-16.403,69.66633-33.56691,105.16621-48.91995,13.76612-5.95353,29.14532-9.07893,44.10735-10.945,6.44957-.80441,16.99285,3.08754,19.68284,8.07719,2.75933,5.11831.65031,16.39941-3.60983,21.11593-14.11791,15.63033-29.94584,29.75962-45.57865,43.95713C328.22616,114.16783,311.651,117.84759,302.5,124.5ZM98.81373,231.91609l-.00163-.95313c-8.37316,0-16.747.0674-25.1193-.01662-11.11374-.1115-12.77188-6.18683-8.12154-14.56923,7.87093-14.18757,15.89642-28.34352,24.82318-41.87541,8.49744-12.88125,20.86545-18.7971,36.77366-17.2162a18.44183,18.44183,0,0,0,11.722-3.54391c18.52185-13.86194,36.90248-27.9392,54.7638-42.63311,3.26678-2.68755,4.754-8.38719,5.62944-12.97016,2.42182-12.67832,3.8069-25.5527,6.14978-38.24846,1.50887-8.1763-1.4693-19.45236-6.87057-22.76486-4.1875-2.75-4.5689-5.50141-13.35152-7.262-1.83742-.36846-3.90573.30793-5.85207.60482C85.32821,44.81331,22.17148,123.26727,28.31363,218.08361c5.3263,82.22213,70.58413,150.308,156.08207,159.48335,81.1763,8.71146,159.22736-35.485,183.26905-117.17308,10.43517-35.45646,5.13616-67.78514-23.19725-96.56055C321.901,140.91451,289.4061,133.88442,261.16667,148.5c-31.40261,16.25286-54.14211,32.66378-86.41716,47.1525-9.46245,4.248-16.96161,8.206-23.34685,17.71595-5.49535,8.18462-17.54635,13.00449-27.6523,16.71493C116.22787,232.84528,107.18145,231.45638,98.81373,231.91609ZM222.957,149.84924c52.72582-28.7652,109.36246-49.88452,150.78759-99.23293-34.40214-2.02472-133.21645,41.77-166.81355,71.56194C213.49654,133.51456,215.63847,137.21284,222.957,149.84924Zm-29.37225-21.2956c-17.284,13.78957-32.12852,25.63285-46.70841,37.26506,4.41426,7.605,7.83755,13.5027,12.07449,20.80222,17.5475-7.02485,35.19684-14.09045,54.83759-21.95323C206.89175,152.33985,200.78958,141.43227,193.58471,128.55364Zm-119.418,93.27969c16.40273,0,36.76485-5.46173,49.43167-6.40574,11.16773-.83233,19.27151-8.65761,18.7726-19.18987-.35091-7.40849-5.724-16.78965-11.8161-21.18757-8.7135-6.29037-19.41926-3.38733-26.06492,5.58932C96.70171,191.15944,82.56608,208.77291,74.16667,221.83333Z" transform="translate(-11.74986 -13.81404)"/>
    <path d="M171.55188,88.53155c.68469,16.41116-11.30656,29.63006-27.49825,30.3134-16.33775.68948-29.597-11.352-30.33865-27.5524a28.95138,28.95138,0,1,1,57.8369-2.761Zm-32.74125,17.54138q3.11077.16454,6.22157.32916c3.90925-5.14488,11.08643-10.45537,10.8364-15.38945-.26613-5.25158-6.722-13.00476-11.98154-14.55486-8.77107-2.58472-15.88415,3.97128-14.9258,13.08717C129.57,95.3354,135.34975,100.58228,138.81063,106.07293Z" transform="translate(-11.74986 -13.81404)"/>
    <path d="M209.05845,333.5501c-.23909,15.84031-13.81941,28.99117-29.7205,28.78083-15.89626-.21034-29.28929-13.79382-29.06906-29.48251.222-15.81574,13.72657-28.804,29.77054-28.63257C196.05129,304.38707,209.29653,317.77611,209.05845,333.5501Zm-8.5849-.36937c-9.363-6.62033-14.25877-12.47611-20.10054-13.65864-9.0567-1.83326-16.29248,4.92423-14.5292,13.45463,1.16135,5.6185,8.92226,12.67289,14.65775,13.655C185.0478,347.41023,191.00642,339.94094,200.47355,333.18073Z" transform="translate(-11.74986 -13.81404)"/>
    <path d="M357.08406,244.87677a29.651,29.651,0,0,1-29.85915,28.634c-15.88666-.29129-29.22329-13.96024-28.909-29.62933.31777-15.83859,13.84776-28.72662,29.90473-28.48592C344.20724,215.635,357.41625,229.127,357.08406,244.87677Zm-12.65862,2.1241q.021-3.15417.04206-6.30817c-5.89313-3.493-12.04738-10.03947-17.60111-9.56448-4.91836.42077-9.16865,8.65183-13.71385,13.43493,5.15983,4.72374,9.87494,12.36841,15.62062,13.24312C333.33652,258.501,339.16094,250.912,344.42544,247.00087Z" transform="translate(-11.74986 -13.81404)"/>
    <path d="M135.05493,288.934c-.10072,15.81836-13.60416,29.07394-29.52821,28.9863-15.88176-.08746-29.35693-13.56667-29.26822-29.277.08926-15.80887,13.51553-28.90859,29.55744-28.83848C121.863,259.8749,135.15565,273.11765,135.05493,288.934Zm-26.25761-16.729q-3.25213.15654-6.50424.3129c-3.73912,5.31094-11.23448,11.44735-10.29352,15.72989,1.25661,5.719,8.55351,12.87827,14.23526,13.883,3.77964.66852,12.75568-8.12336,13.05414-13.06467C119.61453,283.67665,112.60777,277.84428,108.79732,272.205Z" transform="translate(-11.74986 -13.81404)"/>
    <path d="M268.43373,289.41261c16.04843-.03767,29.42473,13.08238,29.47325,28.90869.04825,15.73748-13.42979,29.16194-29.32234,29.20549-15.88761.04355-29.41638-13.29345-29.47438-29.0565C239.05212,302.66747,252.39017,289.45029,268.43373,289.41261Zm-.59109,49.385c7.05807-8.93644,13.44266-13.58944,14.62547-19.31673,1.80267-8.72872-4.06335-14.845-13.5079-15.13926-9.42385-.29346-15.71869,5.37745-14.47044,14.23718C255.30529,324.36717,261.36865,329.41609,267.84264,338.79761Z" transform="translate(-11.74986 -13.81404)"/>
  </g>
</svg>
