<svg xmlns="http://www.w3.org/2000/svg" viewBox="0 0 253.55945 116.6391">
  <defs>
    <style>
      .cls-1 {
        stroke: #000;
        stroke-miterlimit: 10;
        stroke-width: 0.17797px;
      }
    </style>
  </defs>
  <title>2Asset 5</title>
  <g id="Layer_2" data-name="Layer 2">
    <g id="Layer_1-2" data-name="Layer 1">
      <path d="M.40756,32.4674c3.216-3.40557,6.027-4.735,6.6107-5.54237l.36744-2.60941c.03909-4.85721.10264-10.11295.10288-14.99759V7.07283c5.93177,0,11.54722.0136,17.16242-.01716a3.38813,3.38813,0,0,0,2.07331-.41179c2.22488-2.053,4.32392-4.24251,6.6382-6.5549H.40756"/>
      <path class="cls-1" d="M8.047,108.88174c26.49381,0,185.6348-.08565,211.8153-.08565a106.51071,106.51071,0,0,1-10.33209,7.435c-.33879.33452-130.74775.30994-131.31136.31025q-38.553.02112-77.10606.00162C.893,116.5429.67317,116.49188.089,116.41952v-2.2343C.08885,89.795.102,101.75178.18345,77.3618c.00377-1.12726-.36162-36.43742.5124-37.28594,2.48148-1.81407,3.64331-3.15569,6.16666-4.54167C6.86251,61.53186,8.047,83.05857,8.047,108.88174Z"/>
      <path class="cls-1" d="M245.16993,9.31744C218.6772,9.0779,59.542,7.72471,33.36251,7.488A106.51283,106.51283,0,0,1,43.7614.14671c.34181-.33144,130.74521.87221,131.3088.877q38.55162.32745,77.10292.69552c.21982.00205.43917.05506,1.02267.13269l-.0202,2.23422c-.22038,24.38923-.12537,12.43281-.42739,36.82106-.014,1.12717.03217,36.4392-.84949,37.27978-2.49778,1.79156-3.67169,3.12262-6.20747,4.48573C245.92629,56.67609,244.93646,35.13955,245.16993,9.31744Z"/>
      <path d="M253.55945,84.17413c-3.25741,3.36595-6.08446,4.6609-6.678,5.461l-.39935,2.60471c-.09855,4.85637-.22643,10.11094-.28646,14.99521l-.02748,2.245c-5.93133-.07261-11.54619-.155-17.16135-.19293a3.38817,3.38817,0,0,0-2.0782.38638c-2.24984,2.02562-4.37552,4.18926-6.71794,6.47314l32.95249.4034"/>
    </g>
  </g>
</svg>
